HIERARCHY
ROOT RootJoint
{
    OFFSET   0.000000   0.000000   0.000000
    CHANNELS 6 Xposition Yposition Zposition Xrotation Yrotation Zrotation
    JOINT pelvis_lowerback
    {
        OFFSET   0.000000   0.093605   0.000000
        CHANNELS 3 Xrotation Yrotation Zrotation
        JOINT lowerback_torso
        {
            OFFSET   0.000000   0.100000   0.000000
            CHANNELS 3 Xrotation Yrotation Zrotation
            JOINT torso_head
            {
                OFFSET   0.000000   0.282350   0.000000
                CHANNELS 3 Xrotation Yrotation Zrotation
                End Site
                {
                    OFFSET   0.000000   0.192650   0.000000
                }
            }
            JOINT rTorso_Clavicle
            {
                OFFSET  -0.001000   0.157500   0.000000
                CHANNELS 3 Xrotation Yrotation Zrotation
                JOINT rShoulder
                {
                    OFFSET  -0.117647   0.000000   0.000000
                    CHANNELS 3 Xrotation Yrotation Zrotation
                    JOINT rElbow
                    {
                        OFFSET  -0.245000   0.000000   0.000000
                        CHANNELS 3 Xrotation Yrotation Zrotation
                        JOINT rWrist
                        {
                            OFFSET  -0.240000   0.000000   0.000000
                            CHANNELS 3 Xrotation Yrotation Zrotation
                            End Site
                            {
                                OFFSET  -0.116353  -0.002500   0.000000
                            }
                        }
                    }
                }
            }
            JOINT lTorso_Clavicle
            {
                OFFSET   0.001000   0.157500   0.000000
                CHANNELS 3 Xrotation Yrotation Zrotation
                JOINT lShoulder
                {
                    OFFSET   0.117647   0.000000   0.000000
                    CHANNELS 3 Xrotation Yrotation Zrotation
                    JOINT lElbow
                    {
                        OFFSET   0.245000   0.000000   0.000000
                        CHANNELS 3 Xrotation Yrotation Zrotation
                        JOINT lWrist
                        {
                            OFFSET   0.240000   0.000000   0.000000
                            CHANNELS 3 Xrotation Yrotation Zrotation
                            End Site
                            {
                                OFFSET   0.116353  -0.002500   0.000000
                            }
                        }
                    }
                }
            }
        }
    }
    JOINT rHip
    {
        OFFSET  -0.100000  -0.051395   0.000000
        CHANNELS 3 Xrotation Yrotation Zrotation
        JOINT rKnee
        {
            OFFSET   0.000000  -0.410000   0.000000
            CHANNELS 3 Xrotation Yrotation Zrotation
            JOINT rAnkle
            {
                OFFSET   0.000000  -0.390000   0.000000
                CHANNELS 3 Xrotation Yrotation Zrotation
                JOINT rToeJoint
                {
                    OFFSET   0.000000  -0.050000   0.130000
                    CHANNELS 3 Xrotation Yrotation Zrotation
                    End Site
                    {
                        OFFSET  -0.010000   0.002000   0.060000
                    }
                }
            }
        }
    }
    JOINT lHip
    {
        OFFSET   0.100000  -0.051395   0.000000
        CHANNELS 3 Xrotation Yrotation Zrotation
        JOINT lKnee
        {
            OFFSET   0.000000  -0.410000   0.000000
            CHANNELS 3 Xrotation Yrotation Zrotation
            JOINT lAnkle
            {
                OFFSET   0.000000  -0.390000   0.000000
                CHANNELS 3 Xrotation Yrotation Zrotation
                JOINT lToeJoint
                {
                    OFFSET   0.000000  -0.050000   0.130000
                    CHANNELS 3 Xrotation Yrotation Zrotation
                    End Site
                    {
                        OFFSET   0.010000   0.002000   0.060000
                    }
                }
            }
        }
    }
}
MOTION
Frames: 11
Frame Time:   0.016667
 -4.885121   0.850656  -1.712654  10.649964  47.820205  -5.997066  -1.143279   5.560630   0.743215  14.736207   8.691876  -2.023944 -16.854689  -8.616078   0.761652  -3.657049   5.718328  11.365920  10.580449  20.494454  43.411901 -179.907061  81.683258 179.899503  14.714326   7.296069  -8.587331  -1.585476  -0.599391 -13.243013  25.651961  -1.531158 -47.193471 179.968410 -78.809895 179.973285   9.771446  -7.057563   4.203435   5.296369  -7.579036   7.437020  53.373342   0.049115   0.009662  10.247128   4.754686   4.892680   1.059093  -0.031125   0.037248 -48.752624   3.170174  -8.284520  40.972851  -0.015562   0.014445 -11.998792   0.037120   1.494956   0.959147  -0.001467   0.001132
 -4.854314   0.844583  -1.677027   9.047529  47.683231  -4.515761  -1.577865   5.490649   0.453530  15.847494   8.564839  -2.556117 -16.850954  -9.550191   1.734175  -3.820474   5.064688  11.683684  13.821484  20.277738  43.414819 -179.878432  83.406807 179.868340  14.764069   7.543355  -8.224324  -2.014368  -0.867686 -13.915476  23.283309  -1.071198 -47.602593 179.947087 -79.645460 179.953983  10.622071  -6.899634   3.942149   4.236172  -6.468124   6.285623  59.991609   0.070775   0.006726  10.275355   2.620022   4.426051  -1.915996  -0.037460   0.053671 -46.620268   3.772619  -9.425657  42.215813  -0.000333   0.005106 -13.214550   0.112347   3.653253   1.134763  -0.001633   0.000545
 -4.822831   0.830766  -1.642909   7.082805  47.385933  -2.616386  -1.398239   5.095359  -0.006436  16.250685   7.284438  -2.765547 -16.247331  -9.555799   2.465137  -2.961913   4.800001  11.260762  14.524170  20.007451  44.626367 179.994470  85.857679 179.989410  16.048009   7.419822  -7.842067  -1.729779  -0.320301 -14.523558  20.845064  -2.606196 -48.381609 179.962859 -79.950529 179.968895  10.493205  -6.365408   3.520710   2.531002  -7.484231   3.515543  66.871074   0.043297  -0.039746   8.986314   0.848062   3.987942  -2.165634  -0.028349   0.043014 -44.268003   4.026204 -10.535229  46.463271   0.004959  -0.006225 -15.596923  -0.559900   6.727082   1.902958  -0.005767  -0.003465
 -4.791347   0.816948  -1.608790   5.145394  47.045145  -0.744465  -1.221910   4.698648  -0.464884  16.648120   6.002620  -2.965369 -15.643681  -9.553812   3.196123  -2.105663   4.529039  10.842028  15.231604  19.751181  45.839334 179.508053  88.308475 -179.530192  17.332405   7.304814  -7.457217  -1.439398   0.224026 -15.134347  18.382341  -4.106502 -49.226589 179.979590 -80.255598 179.984765  10.368420  -5.830256   3.100899   0.774147  -8.416804   0.709559  73.750513   0.010450  -0.082593   7.683741  -0.913543   3.510075  -2.415270  -0.019191   0.032396 -41.910573   4.234088 -11.654623  50.710730   0.009398  -0.017917 -17.940340  -1.358331   9.770985   2.671153  -0.009955  -0.007419
 -4.759864   0.803131  -1.574672   3.238238  46.661896   1.097036  -1.048865   4.300546  -0.921855  17.040233   4.719464  -3.155845 -15.040116  -9.544232   3.927034  -1.251736   4.251879  10.427554  15.943539  19.509060  47.053685   2.140418  89.240073  -2.168573  18.617236   7.198392  -7.069961  -1.143208   0.765220 -15.747937  15.892273  -5.568963 -50.137400 179.997371 -80.560666 -179.998313  10.247690  -5.294211   2.682642  -1.031083  -9.262542  -2.130833  80.629926  -0.027292  -0.121196   6.365262  -2.663759   2.991793  -2.664904  -0.009987   0.021819 -39.548948   4.395829 -12.781918  54.958190   0.012958  -0.029905 -20.239154  -2.279394  12.781145   3.439348  -0.014195  -0.011317
 -4.732937   0.798651  -1.544013   3.750916  45.340781   1.198821  -1.427878   3.698625  -1.241385  17.179144   4.559362  -3.683498 -15.941073  -9.064887   3.950754  -1.395991   3.519041  11.038163  16.397898  18.927733  48.268845   0.633779  86.855768  -0.671904  19.278474   6.579542  -7.351062  -1.429551   0.447344 -16.917096  12.814701  -7.126649 -49.225584 179.984575 -79.983114 179.988687  10.368623  -4.555748   2.412066  -6.638692  -8.304303  -4.377249  85.666068  -0.036278  -0.104967   5.168053  -4.520472   1.500194  -2.917796  -0.007960   0.018472 -37.815360   5.200875 -12.670469  57.571981   0.009183  -0.023796 -24.394961  -3.159029  12.619869   5.705292  -0.010037  -0.014063
 -4.706011   0.794170  -1.513353   4.255301  44.020345   1.314745  -1.810011   3.098834  -1.564697  17.316539   4.397992  -4.210644 -16.841062  -8.585968   3.982064  -1.532317   2.784713  11.646492  16.863603  18.355638  49.484705   0.422333  84.471167  -0.470441  19.935866   5.957522  -7.624629  -1.722313   0.135380 -18.087796   9.750725  -8.730642 -48.396172 179.973182 -79.405562 179.977089  10.492935  -3.817864   2.140185 -12.190147  -7.134737  -6.512990  90.702213  -0.043805  -0.088012   3.918973  -6.344987  -0.034663  -3.170687  -0.005919   0.015134 -36.080953   6.008912 -12.583405  60.185772   0.005690  -0.017521 -28.557208  -4.024665  12.394962   7.971236  -0.005990  -0.016970
 -4.679084   0.789690  -1.482694   4.752463  42.700680   1.443985  -2.195330   2.501218  -1.891841  17.452411   4.235370  -4.737288 -17.740213  -8.107595   4.020929  -1.660761   2.048984  12.252742  17.340450  17.793039  50.701484   0.335247  82.086537  -0.393357  20.589561   5.332432  -7.890717  -2.021388  -0.170533 -19.260077   6.695995 -10.376188 -47.651130 179.962974 -78.828010 179.966677  10.620656  -3.080578   1.866911 -17.680174  -5.766979  -8.519747  95.738361  -0.049814  -0.070461   2.615974  -8.135027  -1.615479  -3.423579  -0.003863   0.011805 -34.345028   6.819203 -12.520873  62.799564   0.002487  -0.011093 -32.727672  -4.871706  12.107334  10.237180  -0.002062  -0.020036
 -4.651741   0.795571  -1.448788   4.734667  42.234915   1.204585  -1.602799   1.149205  -1.919950  16.058276   3.475160  -4.930359 -16.722495  -6.871570   4.015998  -1.241458   1.718339  12.859609  18.499089  16.573810  50.577980   0.234155  83.015851  -0.274453  19.820525   5.381699  -7.699174  -1.796825  -0.465225 -18.586779   3.453958 -12.028333 -48.856137 179.945369 -77.364526 179.946842  10.499868  -2.909747   2.066644 -23.256457  -4.494952  -8.590538  96.845427  -0.038326  -0.052499   0.180312 -10.334862  -3.189469  -2.921059  -0.002385   0.005841 -29.854102   5.364186 -12.723905  60.474938   0.006138  -0.004997 -34.851384  -5.312121  11.380652  10.178858  -0.001598  -0.014936
 -4.624397   0.801452  -1.414882   4.714392  41.769209   0.966737  -1.011048  -0.203026  -1.934072  14.662583   2.719865  -5.141751 -15.707073  -5.635825   3.989020  -0.818741   1.392160  13.468787  19.647962  15.352452  50.480816   0.099338  83.945132  -0.121840  19.051267   5.428402  -7.506970  -1.568802  -0.757256 -17.912294   0.156034 -13.610369 -50.163075 179.931639 -75.901041 179.930876  10.378501  -2.739338   2.266708 -28.822813  -3.222088  -8.537100  97.952490  -0.026493  -0.034762  -2.334899 -12.465555  -4.869769  -2.418538  -0.000959  -0.000136 -25.377633   3.897841 -12.811715  58.150312   0.009538   0.001241 -36.982065  -5.725366  10.637545  10.120537  -0.001139  -0.009835
 -4.597054   0.807333  -1.380976   4.691689  41.303569   0.730376  -0.419415  -1.555331  -1.934229  13.264862   1.969939  -5.371373 -14.692988  -4.400750   3.940135  -0.392630   1.070501  14.080280  20.788268  14.129472  50.409465  -0.087542  84.874361   0.082820  18.281797   5.472531  -7.314138  -1.337339  -1.046580 -17.236598  -3.201206 -15.115773 -51.571125 179.920693 -74.437555 179.917686  10.256557  -2.569353   2.467105 -34.384777  -1.960391  -8.360438  99.059549  -0.014319  -0.017257  -4.935657 -14.520624  -6.659773  -1.916018   0.000415  -0.006125 -20.909751   2.429135 -12.784596  55.825685   0.012683   0.007613 -39.119496  -6.110780   9.878964  10.062215  -0.000685  -0.004734
